<?xml version="1.0" encoding="UTF-8" standalone="no"?>
<svg xmlns="http://www.w3.org/2000/svg" viewBox="0 0 512 512" width="512" height="512">
  <rect width="512" height="512" rx="96" fill="none" />
  <g transform="translate(128 128)">
    <rect width="256" height="256" rx="56" fill="#FFFFFF" opacity="0.12" />
    <path d="M48 224c0 17.67 14.33 32 32 32h96c17.67 0 32-14.33 32-32v-16H208c35.35 0 64-28.65 64-64V112c0-35.35-28.65-64-64-64H80C44.65 48 16 76.65 16 112v32c0 35.35 28.65 64 64 64h0v32c0 17.67 14.33 32 32 32h32v16z" fill="#FFFFFF" opacity="0.18" />
    <path d="M128 96a32 32 0 1 0 0 64h12a12 12 0 0 1 0 24H128a32 32 0 1 0 0 64h-12a12 12 0 0 1 0-24H128a32 32 0 1 0 0-64H116a12 12 0 0 1 0-24h12z" fill="#FFFFFF" />
    <circle cx="128" cy="128" r="92" fill="#FFFFFF" opacity="0.08" />
  </g>
</svg>
